<svg xmlns="http://www.w3.org/2000/svg" width="600" height="800" viewBox="0 0 600 800">
  <defs>
    <linearGradient id="bg4" x1="0%" y1="0%" x2="100%" y2="100%">
      <stop offset="0%" style="stop-color:#3a4a3a"/>
      <stop offset="100%" style="stop-color:#1e2e1e"/>
    </linearGradient>
  </defs>
  <rect width="600" height="800" fill="url(#bg4)"/>
  <g fill="none" stroke="#4a5a4a" stroke-width="1">
    <path d="M150 150 L180 120 L240 120 L260 140 L260 180 L300 180 L300 140 L340 140 L360 180 L360 120 L420 120 L450 150 L450 200 L420 220 L420 700 L180 700 L180 220 L150 200 Z"/>
    <path d="M240 120 Q300 160 360 120" stroke="#4a5a4a" stroke-width="2"/>
    <line x1="180" y1="120" x2="150" y2="200" stroke="#4a5a4a" stroke-width="1"/>
    <line x1="420" y1="120" x2="450" y2="200" stroke="#4a5a4a" stroke-width="1"/>
  </g>
  <text x="300" y="400" font-family="Arial, sans-serif" font-size="24" fill="#7a8a7a" text-anchor="middle" font-weight="bold">NOCTURN</text>
  <text x="300" y="440" font-family="Arial, sans-serif" font-size="14" fill="#6a7a6a" text-anchor="middle">MILITARY RELAXED</text>
  <rect x="200" y="500" width="40" height="20" fill="#4a5a4a" opacity="0.5"/>
  <rect x="360" y="520" width="50" height="25" fill="#3a4a3a" opacity="0.5"/>
  <rect x="250" y="550" width="35" height="35" fill="#5a6a5a" opacity="0.3"/>
</svg>
